HIERARCHY
ROOT Elbow
{
	OFFSET	0.00	0.00	0.00
	CHANNELS 6 Xposition Yposition Zposition Zrotation Xrotation Yrotation
	JOINT L_Wrist
	{
		OFFSET	 0.208349	 0.000000	 0.000000
		CHANNELS 3 Zrotation Xrotation Yrotation
		JOINT L_index_Proximal
		{
			OFFSET	 0.093499	 0.010637	-0.002084
			CHANNELS 3 Zrotation Xrotation Yrotation
			JOINT L_index_b
			{
				OFFSET	 0.033152	 0.000000	 0.000000
				CHANNELS 3 Zrotation Xrotation Yrotation
				JOINT L_index_c
				{
					OFFSET	 0.018651	 0.000000	 0.000000
					CHANNELS 3 Zrotation Xrotation Yrotation
					End Site
					{
						OFFSET	 0.018651	 0.000000	 0.000000
					}
				}
			}
		}
		JOINT L_middle_Proximal
		{
			OFFSET	 0.090632	-0.006115	-0.003750
			CHANNELS 3 Zrotation Xrotation Yrotation
			JOINT L_middle_b
			{
				OFFSET	 0.037194	 0.000000	 0.000000
				CHANNELS 3 Zrotation Xrotation Yrotation
				JOINT L_middle_c
				{
					OFFSET	 0.021943	 0.000000	 0.000000
					CHANNELS 3 Zrotation Xrotation Yrotation
					End Site
					{
						OFFSET	 0.021943	 0.000000	 0.000000
					}
				}
			}
		}
		JOINT L_pinky_Proximal
		{
			OFFSET	 0.074015	-0.035449	-0.000417
			CHANNELS 3 Zrotation Xrotation Yrotation
			JOINT L_pinky_b
			{
				OFFSET	 0.027285	 0.000000	 0.000000
				CHANNELS 3 Zrotation Xrotation Yrotation
				JOINT L_pinky_c
				{
					OFFSET	 0.015093	 0.000000	 0.000000
					CHANNELS 3 Zrotation Xrotation Yrotation
					End Site
					{
						OFFSET	 0.015093	 0.000000	 0.000000
					}
				}
			}
		}
		JOINT L_ring_Proximal
		{
			OFFSET	 0.082801	-0.021859	-0.003750
			CHANNELS 3 Zrotation Xrotation Yrotation
			JOINT L_ring_b
			{
				OFFSET	 0.034478	 0.000000	 0.000000
				CHANNELS 3 Zrotation Xrotation Yrotation
				JOINT L_ring_c
				{
					OFFSET	 0.021377	 0.000000	 0.000000
					CHANNELS 3 Zrotation Xrotation Yrotation
					End Site
					{
						OFFSET	 0.021377	 0.000000	 0.000000
					}
				}
			}
		}
		JOINT L_thumb_Proximal
		{
			OFFSET	 0.030306	 0.018528	 0.004584
			CHANNELS 3 Zrotation Xrotation Yrotation
			JOINT L_thumb_a
			{
				OFFSET	 0.038520	 0.000000	 0.000000
				CHANNELS 3 Zrotation Xrotation Yrotation
				JOINT L_thumb_b
				{
					OFFSET	 0.026310	 0.000000	 0.000000
					CHANNELS 3 Zrotation Xrotation Yrotation
					End Site
					{
						OFFSET	 0.026310	 0.000000	 0.000000
					}
				}
			}
		}
	}
}
MOTION
Frames:    17
Frame Time: 0.01666667
-0.626074	-0.266246	 0.684658	 50.148860	 34.236620	-177.051100	 19.820810	 2.629874	 15.099410	 13.480640	-8.271802	-53.135100	 1.214556	-0.361098	-33.114190	-2.771637	 0.355759	-14.625880	-3.093214	-9.935379	-15.886420	 3.673382	-0.590337	-18.253580	 2.008517	-0.172561	-9.819902	-29.678570	-19.743620	 8.329480	-0.032666	 0.005100	-17.736730	 0.669900	-0.062280	-10.623570	-18.053500	-11.502170	-0.849215	 0.004668	-0.000774	-18.884500	 1.503023	-0.112874	-8.588366	 72.505970	 41.475750	-60.229560	 5.311799	-0.070407	-1.517864	 0.700939	-0.087851	-14.285190
-0.626203	-0.266437	 0.684519	 50.132320	 34.299350	-177.020900	 19.814790	 2.621932	 15.052670	 13.458680	-8.260226	-53.145240	 1.196465	-0.356525	-33.184890	-2.758995	 0.355236	-14.670730	-3.100665	-9.929953	-15.821010	 3.651651	-0.586133	-18.231700	 1.990107	-0.170280	-9.780042	-29.795090	-19.748230	 8.467131	-0.099727	 0.015560	-17.734140	 0.665078	-0.061933	-10.639950	-18.029550	-11.503640	-0.774120	-0.020587	 0.003413	-18.807780	 1.489586	-0.111410	-8.553985	 72.500180	 41.486510	-60.217590	 5.301123	-0.071956	-1.554152	 0.720935	-0.090840	-14.363820
-0.626036	-0.266643	 0.684536	 50.137120	 34.286080	-177.008900	 19.820400	 2.619626	 15.039060	 13.448860	-8.256101	-53.156380	 1.199575	-0.357733	-33.210120	-2.761324	 0.355754	-14.679720	-3.093709	-9.930334	-15.802370	 3.649520	-0.585529	-18.223810	 1.986238	-0.169742	-9.767725	-29.803530	-19.749070	 8.501278	-0.107908	 0.016820	-17.720830	 0.658754	-0.061206	-10.616590	-18.030610	-11.503220	-0.724918	-0.029839	 0.004926	-18.757460	 1.485638	-0.110406	-8.500574	 72.499030	 41.495370	-60.203970	 5.296549	-0.071965	-1.555842	 0.731530	-0.092260	-14.375740
-0.625892	-0.266779	 0.684502	 50.141890	 34.292800	-177.009300	 19.826620	 2.616389	 15.020050	 13.441180	-8.251807	-53.158300	 1.201407	-0.358669	-33.243470	-2.759422	 0.356058	-14.701900	-3.087482	-9.929666	-15.767930	 3.653355	-0.586145	-18.223910	 1.982420	-0.169245	-9.758316	-29.808500	-19.750200	 8.552668	-0.118585	 0.018458	-17.696070	 0.650867	-0.060256	-10.578820	-18.056460	-11.500670	-0.651026	-0.054216	 0.008925	-18.704330	 1.475396	-0.109055	-8.454686	 72.493220	 41.506560	-60.191260	 5.295451	-0.072196	-1.561150	 0.737077	-0.093085	-14.391790
-0.625617	-0.266872	 0.684468	 50.171220	 34.296880	-177.008800	 19.830880	 2.611512	 14.991410	 13.417160	-8.242025	-53.188940	 1.192795	-0.356403	-33.271470	-2.774538	 0.358131	-14.707280	-3.100522	-9.923826	-15.719240	 3.657700	-0.587643	-18.248320	 1.982138	-0.169474	-9.772761	-29.814440	-19.751820	 8.630242	-0.111081	 0.017286	-17.688280	 0.660145	-0.061055	-10.567340	-18.054560	-11.500260	-0.584525	-0.041483	 0.006838	-18.723880	 1.474341	-0.109199	-8.471335	 72.475980	 41.530080	-60.170570	 5.313617	-0.071523	-1.541239	 0.752644	-0.094779	-14.355740
-0.625494	-0.267040	 0.684349	 50.153890	 34.341880	-176.993100	 19.823970	 2.603991	 14.947130	 13.391660	-8.227252	-53.193910	 1.192581	-0.356871	-33.318120	-2.771768	 0.358065	-14.719080	-3.078988	-9.924977	-15.663670	 3.669855	-0.589852	-18.256050	 1.981270	-0.169375	-9.771325	-29.818440	-19.754010	 8.740746	-0.101974	 0.015841	-17.652060	 0.658212	-0.060743	-10.544970	-18.035250	-11.501080	-0.501718	-0.032634	 0.005374	-18.723540	 1.477255	-0.109283	-8.461341	 72.459850	 41.543000	-60.166170	 5.330713	-0.071394	-1.533667	 0.755841	-0.095073	-14.336110
-0.625569	-0.267021	 0.684300	 50.147540	 34.376040	-176.985400	 19.821870	 2.599539	 14.920920	 13.398400	-8.231492	-53.195640	 1.215208	-0.363766	-33.328600	-2.767210	 0.357366	-14.714510	-3.053925	-9.928728	-15.638430	 3.687340	-0.592884	-18.262900	 1.981617	-0.169522	-9.777790	-29.826220	-19.755600	 8.813959	-0.101820	 0.015787	-17.622720	 0.651604	-0.060052	-10.530710	-18.025520	-11.501430	-0.450382	-0.028618	 0.004721	-18.713420	 1.477776	-0.109162	-8.448749	 72.457600	 41.544600	-60.166100	 5.340568	-0.070972	-1.521783	 0.773880	-0.097090	-14.301130
-0.625332	-0.267040	 0.684216	 50.150230	 34.397920	-176.985700	 19.819680	 2.597458	 14.908650	 13.399360	-8.232129	-53.192140	 1.224313	-0.366770	-33.351630	-2.758858	 0.356442	-14.720290	-3.024475	-9.935373	-15.636140	 3.707053	-0.596471	-18.275450	 1.987763	-0.170118	-9.781883	-29.829870	-19.756680	 8.845702	-0.090715	 0.014058	-17.609760	 0.665160	-0.061199	-10.512430	-18.029010	-11.501310	-0.407816	-0.019667	 0.003238	-18.705260	 1.483298	-0.109629	-8.453092	 72.462040	 41.553320	-60.145210	 5.354198	-0.069866	-1.494102	 0.796037	-0.099473	-14.245490
-0.625299	-0.266941	 0.684234	 50.157420	 34.368660	-176.968400	 19.820210	 2.597596	 14.909500	 13.408280	-8.233527	-53.163980	 1.222448	-0.366010	-33.335770	-2.765475	 0.356904	-14.705090	-3.020431	-9.938955	-15.672550	 3.703664	-0.594399	-18.229260	 1.995003	-0.170412	-9.763475	-29.797690	-19.753980	 8.720704	-0.049322	 0.007648	-17.632240	 0.694798	-0.063872	-10.502900	-18.054580	-11.499960	-0.423207	-0.017840	 0.002934	-18.693640	 1.497022	-0.110582	-8.449124	 72.482020	 41.554260	-60.121330	 5.382936	-0.069093	-1.469767	 0.807013	-0.100462	-14.190810
-0.625082	-0.266933	 0.684372	 50.170140	 34.305290	-176.953800	 19.806640	 2.600141	 14.924470	 13.417610	-8.238632	-53.161950	 1.240619	-0.371447	-33.334670	-2.766748	 0.357221	-14.711030	-3.028953	-9.939672	-15.717650	 3.706884	-0.593355	-18.182060	 2.002702	-0.170693	-9.742211	-29.787060	-19.751290	 8.602036	-0.040127	 0.006216	-17.626220	 0.712198	-0.065421	-10.496860	-18.084800	-11.497740	-0.463256	-0.009265	 0.001527	-18.676270	 1.504210	-0.110991	-8.439134	 72.499310	 41.534350	-60.137210	 5.396168	-0.067800	-1.438488	 0.797210	-0.098964	-14.152510
-0.624828	-0.266984	 0.684490	 50.184160	 34.247690	-176.938900	 19.800370	 2.603517	 14.944350	 13.416700	-8.240626	-53.170660	 1.243400	-0.372215	-33.328960	-2.780016	 0.359128	-14.718810	-3.026833	-9.942536	-15.741700	 3.699405	-0.591515	-18.162860	 2.005613	-0.170878	-9.738197	-29.756550	-19.749710	 8.512796	-0.021015	 0.003259	-17.630500	 0.719072	-0.066036	-10.493740	-18.087320	-11.498670	-0.504688	 0.003370	-0.000554	-18.674330	 1.508666	-0.111304	-8.438698	 72.523640	 41.514610	-60.142110	 5.389575	-0.067222	-1.428119	 0.796612	-0.098905	-14.153260
-0.624615	-0.266965	 0.684664	 50.196410	 34.214980	-176.938300	 19.796330	 2.604853	 14.952230	 13.430580	-8.245622	-53.159270	 1.244536	-0.372759	-33.346230	-2.776225	 0.358866	-14.728060	-3.008142	-9.943475	-15.714110	 3.698297	-0.592166	-18.187720	 2.004085	-0.171157	-9.761822	-29.749230	-19.748110	 8.497603	-0.014012	 0.002175	-17.618950	 0.728659	-0.066822	-10.479550	-18.112400	-11.495230	-0.479501	 0.008815	-0.001451	-18.700340	 1.518546	-0.112380	-8.464160	 72.516680	 41.505410	-60.168640	 5.405160	-0.066017	-1.398622	 0.774025	-0.095719	-14.098860
-0.624581	-0.266847	 0.684949	 50.204690	 34.115050	-176.907900	 19.796330	 2.607774	 14.969370	 13.425830	-8.234163	-53.106450	 1.219463	-0.364300	-33.265060	-2.801825	 0.360868	-14.675440	-3.010893	-9.941257	-15.686490	 3.700425	-0.593462	-18.216680	 2.006806	-0.171740	-9.781680	-29.717590	-19.746090	 8.423193	 0.018797	-0.002916	-17.644590	 0.761312	-0.069824	-10.480480	-18.128840	-11.493930	-0.479400	 0.017282	-0.002851	-18.733680	 1.529842	-0.113371	-8.476117	 72.464510	 41.520630	-60.197380	 5.449298	-0.063531	-1.334832	 0.748041	-0.091621	-13.965580
-0.624671	-0.266652	 0.684956	 50.221160	 34.111440	-176.905200	 19.795620	 2.609454	 14.979230	 13.394600	-8.214808	-53.102910	 1.207667	-0.360583	-33.247530	-2.791697	 0.359263	-14.663510	-3.008880	-9.941446	-15.682240	 3.708206	-0.595009	-18.225480	 2.011306	-0.172097	-9.780232	-29.701580	-19.745990	 8.430667	 0.017308	-0.002690	-17.646580	 0.761916	-0.069860	-10.477420	-18.109370	-11.495540	-0.489292	 0.032153	-0.005313	-18.764510	 1.541213	-0.114286	-8.481052	 72.456670	 41.524480	-60.199010	 5.472540	-0.062894	-1.315683	 0.752213	-0.091890	-13.929070
-0.624776	-0.266216	 0.685069	 50.290790	 34.035930	-176.930300	 19.813630	 2.615835	 15.016810	 13.354640	-8.186509	-53.076700	 1.217044	-0.363055	-33.218710	-2.775125	 0.356384	-14.632660	-2.984587	-9.947754	-15.701300	 3.714709	-0.596091	-18.226630	 2.018902	-0.172727	-9.779056	-29.579530	-19.743880	 8.422807	 0.036191	-0.005591	-17.578540	 0.780904	-0.071101	-10.404270	-18.078970	-11.498120	-0.519433	 0.027882	-0.004619	-18.808030	 1.539925	-0.114382	-8.495264	 72.450660	 41.523150	-60.207520	 5.500691	-0.061443	-1.278811	 0.773973	-0.094047	-13.855330
-0.624853	-0.266068	 0.685109	 50.312580	 33.997270	-176.924600	 19.827500	 2.618106	 15.030150	 13.345220	-8.173867	-53.033680	 1.211572	-0.361448	-33.221480	-2.757281	 0.354291	-14.641150	-2.981836	-9.947484	-15.687170	 3.702034	-0.594844	-18.250560	 2.026194	-0.173722	-9.799766	-29.550890	-19.743110	 8.407630	 0.027195	-0.004207	-17.571470	 0.783053	-0.071223	-10.394620	-18.073710	-11.498390	-0.497582	 0.018020	-0.002978	-18.830910	 1.538285	-0.114537	-8.515630	 72.416620	 41.544390	-60.207370	 5.529552	-0.059917	-1.240241	 0.779635	-0.094176	-13.776390
-0.624892	-0.265939	 0.685249	 50.373910	 33.930100	-176.915600	 19.869950	 2.620351	 15.043370	 13.350080	-8.162000	-52.942220	 1.244851	-0.372161	-33.288170	-2.714770	 0.349437	-14.666790	-3.000077	-9.943440	-15.684640	 3.696138	-0.593425	-18.236350	 2.023890	-0.173453	-9.796026	-29.518810	-19.742050	 8.378070	 0.016591	-0.002557	-17.548670	 0.777214	-0.070687	-10.394400	-18.061180	-11.499430	-0.509087	 0.031917	-0.005295	-18.838420	 1.530403	-0.113959	-8.516774	 72.378200	 41.583680	-60.181310	 5.565572	-0.057994	-1.193083	 0.811223	-0.097344	-13.684480
